<svg width="74" height="121" viewBox="0 0 74 121" fill="none" xmlns="http://www.w3.org/2000/svg">
<path fill-rule="evenodd" clip-rule="evenodd" d="M41.1836 8.54068C38.8732 6.23007 35.1268 6.23007 32.8163 8.54068L30.8295 10.5274L35.4676 15.1653C35.9563 15.0346 36.4698 14.9649 37 14.9649C40.2677 14.9649 42.9166 17.6139 42.9166 20.8816C42.9166 21.4116 42.8468 21.9253 42.7164 22.4141L48.78 28.4777C49.2688 28.3472 49.7823 28.2774 50.3125 28.2774C53.5802 28.2774 56.2291 30.9263 56.2291 34.1941C56.2291 37.4618 53.5802 40.1107 50.3125 40.1107C47.0447 40.1107 44.3958 37.4618 44.3958 34.1941C44.3958 33.6639 44.4656 33.1504 44.5961 32.6617L39.9583 28.0236V42.3815C41.7268 43.4045 42.9166 45.3165 42.9166 47.5066C42.9166 50.7743 40.2677 53.4232 37 53.4232C33.7322 53.4232 31.0833 50.7743 31.0833 47.5066C31.0833 45.3165 32.2731 43.4045 34.0416 42.3815V26.0067C32.2731 24.9837 31.0833 23.0716 31.0833 20.8816C31.0833 20.3516 31.1531 19.8378 31.2836 19.349L26.6458 14.7111L12.8257 28.5312C10.5151 30.8417 10.5151 34.5881 12.8257 36.8986L32.8163 56.8892C35.1268 59.1997 38.8732 59.1997 41.1836 56.8892L61.1743 36.8986C63.4847 34.5881 63.4847 30.8417 61.1743 28.5312L41.1836 8.54068ZM28.6325 4.35694C33.2538 -0.264255 40.7461 -0.264243 45.3673 4.35697L65.358 24.3475C69.9792 28.9688 69.9792 36.461 65.358 41.0822L45.3673 61.0729C40.7461 65.6941 33.2538 65.6941 28.6325 61.0729L8.64201 41.0822C4.02081 36.461 4.02082 28.9688 8.64204 24.3475L28.6325 4.35694Z" fill="black"/>
<path d="M33.8011 100.629C33.4531 99.8968 32.9491 99.3328 32.2891 98.9368C31.6291 98.5288 30.8611 98.3248 29.9851 98.3248C29.1091 98.3248 28.3171 98.5288 27.6091 98.9368C26.9131 99.3328 26.3611 99.9088 25.9531 100.665C25.5571 101.409 25.3591 102.273 25.3591 103.257C25.3591 104.241 25.5571 105.105 25.9531 105.849C26.3611 106.593 26.9131 107.169 27.6091 107.577C28.3171 107.973 29.1091 108.171 29.9851 108.171C31.2091 108.171 32.2171 107.805 33.0091 107.073C33.8011 106.341 34.2631 105.351 34.3951 104.103H29.3911V102.771H36.1411V104.031C36.0451 105.063 35.7211 106.011 35.1691 106.875C34.6171 107.727 33.8911 108.405 32.9911 108.909C32.0911 109.401 31.0891 109.647 29.9851 109.647C28.8211 109.647 27.7591 109.377 26.7991 108.837C25.8391 108.285 25.0771 107.523 24.5131 106.551C23.9611 105.579 23.6851 104.481 23.6851 103.257C23.6851 102.033 23.9611 100.935 24.5131 99.9628C25.0771 98.9788 25.8391 98.2168 26.7991 97.6768C27.7591 97.1248 28.8211 96.8488 29.9851 96.8488C31.3171 96.8488 32.4931 97.1788 33.5131 97.8388C34.5451 98.4988 35.2951 99.4288 35.7631 100.629H33.8011ZM39.9449 96.9928V109.539H38.3069V96.9928H39.9449ZM50.4586 96.9928V98.3248H47.0386V109.539H45.4006V98.3248H41.9626V96.9928H50.4586Z" fill="black"/>
</svg>
