<svg width="71" height="15" viewBox="0 0 71 15" fill="none" xmlns="http://www.w3.org/2000/svg">
<path d="M5.82265 13.0268L8.88265 4.67479H10.6286L6.75865 14.5388H4.85065L0.980648 4.67479H2.74465L5.82265 13.0268ZM20.5313 14.7008C19.7753 14.7008 19.0973 14.5748 18.4973 14.3228C17.8973 14.0588 17.4233 13.6988 17.0753 13.2428C16.7273 12.7748 16.5353 12.2408 16.4993 11.6408H18.1913C18.2393 12.1328 18.4673 12.5348 18.8753 12.8468C19.2953 13.1588 19.8413 13.3148 20.5133 13.3148C21.1373 13.3148 21.6293 13.1768 21.9893 12.9008C22.3493 12.6248 22.5293 12.2768 22.5293 11.8568C22.5293 11.4248 22.3373 11.1068 21.9533 10.9028C21.5693 10.6868 20.9753 10.4768 20.1713 10.2728C19.4393 10.0808 18.8393 9.88879 18.3713 9.69679C17.9153 9.49279 17.5193 9.19879 17.1833 8.81479C16.8593 8.41879 16.6973 7.90279 16.6973 7.26679C16.6973 6.76279 16.8473 6.30079 17.1473 5.88079C17.4473 5.46079 17.8733 5.13079 18.4253 4.89079C18.9773 4.63879 19.6073 4.51279 20.3153 4.51279C21.4073 4.51279 22.2893 4.78879 22.9613 5.34079C23.6333 5.89279 23.9933 6.64879 24.0413 7.60879H22.4033C22.3673 7.09279 22.1573 6.67879 21.7733 6.36679C21.4013 6.05479 20.8973 5.89879 20.2613 5.89879C19.6733 5.89879 19.2053 6.02479 18.8573 6.27679C18.5093 6.52879 18.3353 6.85879 18.3353 7.26679C18.3353 7.59079 18.4373 7.86079 18.6413 8.07679C18.8573 8.28079 19.1213 8.44879 19.4333 8.58079C19.7573 8.70079 20.2013 8.83879 20.7653 8.99479C21.4733 9.18679 22.0493 9.37879 22.4933 9.57079C22.9373 9.75079 23.3153 10.0268 23.6273 10.3988C23.9513 10.7708 24.1193 11.2568 24.1313 11.8568C24.1313 12.3968 23.9813 12.8828 23.6813 13.3148C23.3813 13.7468 22.9553 14.0888 22.4033 14.3408C21.8633 14.5808 21.2393 14.7008 20.5313 14.7008ZM28.4416 6.02479V11.8388C28.4416 12.3188 28.5436 12.6608 28.7476 12.8648C28.9516 13.0568 29.3056 13.1528 29.8096 13.1528H31.0156V14.5388H29.5396C28.6276 14.5388 27.9436 14.3288 27.4876 13.9088C27.0316 13.4888 26.8036 12.7988 26.8036 11.8388V6.02479H25.5256V4.67479H26.8036V2.19079H28.4416V4.67479H31.0156V6.02479H28.4416ZM41.7483 4.67479V14.5388H40.1103V13.0808C39.7983 13.5848 39.3603 13.9808 38.7963 14.2688C38.2443 14.5448 37.6323 14.6828 36.9603 14.6828C36.1923 14.6828 35.5023 14.5268 34.8903 14.2148C34.2783 13.8908 33.7923 13.4108 33.4323 12.7748C33.0843 12.1388 32.9103 11.3648 32.9103 10.4528V4.67479H34.5303V10.2368C34.5303 11.2088 34.7763 11.9588 35.2683 12.4868C35.7603 13.0028 36.4323 13.2608 37.2843 13.2608C38.1603 13.2608 38.8503 12.9908 39.3543 12.4508C39.8583 11.9108 40.1103 11.1248 40.1103 10.0928V4.67479H41.7483ZM43.9019 9.57079C43.9019 8.56279 44.1059 7.68079 44.5139 6.92479C44.9219 6.15679 45.4799 5.56279 46.1879 5.14279C46.9079 4.72279 47.7119 4.51279 48.5999 4.51279C49.3679 4.51279 50.0819 4.69279 50.7419 5.05279C51.4019 5.40079 51.9059 5.86279 52.2539 6.43879V1.21879H53.9099V14.5388H52.2539V12.6848C51.9299 13.2728 51.4499 13.7588 50.8139 14.1428C50.1779 14.5148 49.4339 14.7008 48.5819 14.7008C47.7059 14.7008 46.9079 14.4848 46.1879 14.0528C45.4799 13.6208 44.9219 13.0148 44.5139 12.2348C44.1059 11.4548 43.9019 10.5668 43.9019 9.57079ZM52.2539 9.58879C52.2539 8.84479 52.1039 8.19679 51.8039 7.64479C51.5039 7.09279 51.0959 6.67279 50.5799 6.38479C50.0759 6.08479 49.5179 5.93479 48.9059 5.93479C48.2939 5.93479 47.7359 6.07879 47.2319 6.36679C46.7279 6.65479 46.3259 7.07479 46.0259 7.62679C45.7259 8.17879 45.5759 8.82679 45.5759 9.57079C45.5759 10.3268 45.7259 10.9868 46.0259 11.5508C46.3259 12.1028 46.7279 12.5288 47.2319 12.8288C47.7359 13.1168 48.2939 13.2608 48.9059 13.2608C49.5179 13.2608 50.0759 13.1168 50.5799 12.8288C51.0959 12.5288 51.5039 12.1028 51.8039 11.5508C52.1039 10.9868 52.2539 10.3328 52.2539 9.58879ZM57.524 3.07279C57.212 3.07279 56.948 2.96479 56.732 2.74879C56.516 2.53279 56.408 2.26879 56.408 1.95679C56.408 1.64479 56.516 1.38079 56.732 1.16479C56.948 0.948787 57.212 0.840787 57.524 0.840787C57.824 0.840787 58.076 0.948787 58.28 1.16479C58.496 1.38079 58.604 1.64479 58.604 1.95679C58.604 2.26879 58.496 2.53279 58.28 2.74879C58.076 2.96479 57.824 3.07279 57.524 3.07279ZM58.316 4.67479V14.5388H56.678V4.67479H58.316ZM65.4097 14.7008C64.4857 14.7008 63.6457 14.4908 62.8897 14.0708C62.1457 13.6508 61.5577 13.0568 61.1257 12.2888C60.7057 11.5088 60.4957 10.6088 60.4957 9.58879C60.4957 8.58079 60.7117 7.69279 61.1437 6.92479C61.5877 6.14479 62.1877 5.55079 62.9437 5.14279C63.6997 4.72279 64.5457 4.51279 65.4817 4.51279C66.4177 4.51279 67.2637 4.72279 68.0197 5.14279C68.7757 5.55079 69.3697 6.13879 69.8017 6.90679C70.2457 7.67479 70.4677 8.56879 70.4677 9.58879C70.4677 10.6088 70.2397 11.5088 69.7837 12.2888C69.3397 13.0568 68.7337 13.6508 67.9657 14.0708C67.1977 14.4908 66.3457 14.7008 65.4097 14.7008ZM65.4097 13.2608C65.9977 13.2608 66.5497 13.1228 67.0657 12.8468C67.5817 12.5708 67.9957 12.1568 68.3077 11.6048C68.6317 11.0528 68.7937 10.3808 68.7937 9.58879C68.7937 8.79679 68.6377 8.12479 68.3257 7.57279C68.0137 7.02079 67.6057 6.61279 67.1017 6.34879C66.5977 6.07279 66.0517 5.93479 65.4637 5.93479C64.8637 5.93479 64.3117 6.07279 63.8077 6.34879C63.3157 6.61279 62.9197 7.02079 62.6197 7.57279C62.3197 8.12479 62.1697 8.79679 62.1697 9.58879C62.1697 10.3928 62.3137 11.0708 62.6017 11.6228C62.9017 12.1748 63.2977 12.5888 63.7897 12.8648C64.2817 13.1288 64.8217 13.2608 65.4097 13.2608Z" fill="black"/>
</svg>
